<?xml version="1.0" encoding="utf-8"?>
<!-- Generator: Adobe Illustrator 16.0.0, SVG Export Plug-In . SVG Version: 6.00 Build 0)  -->
<!DOCTYPE svg PUBLIC "-//W3C//DTD SVG 1.1//EN" "http://www.w3.org/Graphics/SVG/1.1/DTD/svg11.dtd">
<svg version="1.1" id="图层_1" xmlns="http://www.w3.org/2000/svg" xmlns:xlink="http://www.w3.org/1999/xlink" x="0px" y="0px"
	 width="44px" height="44px" viewBox="0 0 44 44" enable-background="new 0 0 44 44" xml:space="preserve">
<g>
	<path fill-rule="evenodd" clip-rule="evenodd" fill="#9FA0A0" d="M12.542,25.545c-0.618,0-1.122,0.504-1.122,1.123v4.188
		c0,0.619,0.504,1.121,1.122,1.121h4.188c0.619,0,1.122-0.502,1.122-1.121v-4.188c0-0.619-0.503-1.123-1.122-1.123H12.542z
		 M15.929,30.053h-2.585v-2.584h2.585V30.053z"/>
	<path fill-rule="evenodd" clip-rule="evenodd" fill="#9FA0A0" d="M21.161,23.291c-0.618,0-1.122,0.504-1.122,1.123v6.441
		c0,0.619,0.504,1.121,1.122,1.121h4.188c0.618,0,1.122-0.502,1.122-1.121v-6.441c0-0.619-0.504-1.123-1.122-1.123H21.161z
		 M24.547,30.053h-2.584v-4.838h2.584V30.053z"/>
	<path fill-rule="evenodd" clip-rule="evenodd" fill="#9FA0A0" d="M29.78,18.784c-0.618,0-1.122,0.504-1.122,1.123v10.949
		c0,0.619,0.504,1.121,1.122,1.121h4.188c0.618,0,1.122-0.502,1.122-1.121V19.907c0-0.619-0.504-1.123-1.122-1.123H29.78z
		 M33.166,30.053h-2.584v-9.345h2.584V30.053z"/>
	<path fill-rule="evenodd" clip-rule="evenodd" fill="#9FA0A0" d="M35.522,34.563H9.437V8.476c0-0.531-0.43-0.962-0.961-0.962
		S7.514,7.945,7.514,8.476v26.887c0,0.619,0.503,1.121,1.122,1.121h26.887c0.531,0,0.962-0.43,0.962-0.961
		S36.054,34.563,35.522,34.563z"/>
	<polygon fill-rule="evenodd" clip-rule="evenodd" fill="#9FA0A0" points="12.415,23.158 18.578,16.995 21.341,19.758 
		21.341,19.758 22.615,21.033 22.615,21.033 22.615,21.033 23.891,19.758 23.891,19.758 32.178,11.47 30.903,10.196 22.615,18.483 
		19.853,15.721 19.853,15.72 18.577,14.446 17.303,15.72 17.303,15.72 11.14,21.883 	"/>
	<polygon fill-rule="evenodd" clip-rule="evenodd" fill="#9FA0A0" points="34.128,8.245 29.213,8.504 33.869,13.161 	"/>
</g>
</svg>
