<?xml version="1.0" standalone="no"?><!DOCTYPE svg PUBLIC "-//W3C//DTD SVG 1.1//EN" "http://www.w3.org/Graphics/SVG/1.1/DTD/svg11.dtd"><svg t="1577936239758" class="icon" viewBox="0 0 1024 1024" version="1.1" xmlns="http://www.w3.org/2000/svg" p-id="9918" xmlns:xlink="http://www.w3.org/1999/xlink" width="200" height="200"><defs><style type="text/css"></style></defs><path d="M887.177821 305.994136L714.286146 136.492674c-5.51562-5.343705-12.899798-8.389064-20.599154-8.389064H278.207279c-48.667419 0-88.256066 39.588647-88.256066 88.256066V804.731064c0 48.667419 39.588647 88.256066 88.256066 88.256067h529.534352c48.667419 0 88.256066-39.588647 88.256067-88.256067V327.024102c0-7.9296-3.188622-15.456017-8.819877-21.029966zM837.160661 804.731064c0 16.20303-13.186324 29.41903-29.41903 29.41903H278.207279c-16.231683 0-29.41903-13.214976-29.419029-29.41903V216.359676c0-16.20303 13.186324-29.41903 29.419029-29.41903h403.471215L837.160661 339.377454V804.731064z" p-id="9919" fill="#cdcdcd"></path><path d="M389.992225 501.697353c-11.491729-11.491729-30.107715-11.491729-41.599443 0s-11.491729 30.107715 0 41.599444l118.76594 118.76594c5.745864 5.745864 13.273305 8.618285 20.799722 8.618285s15.053857-2.87242 20.799722-8.618285l228.797963-228.797963c11.491729-11.491729 11.491729-30.107715 0-41.599443s-30.107715-11.491729-41.599444 0L487.958444 599.663572l-97.966219-97.966219z" p-id="9920" fill="#cdcdcd"></path></svg>