<?xml version="1.0" encoding="utf-8"?>
<!-- Generator: Adobe Illustrator 16.0.0, SVG Export Plug-In . SVG Version: 6.00 Build 0)  -->
<!DOCTYPE svg PUBLIC "-//W3C//DTD SVG 1.1//EN" "http://www.w3.org/Graphics/SVG/1.1/DTD/svg11.dtd">
<svg version="1.1" id="图层_1" xmlns="http://www.w3.org/2000/svg" xmlns:xlink="http://www.w3.org/1999/xlink" x="0px" y="0px"
	 width="44px" height="44px" viewBox="0 0 44 44" enable-background="new 0 0 44 44" xml:space="preserve">
<g>
	<g>
		<path fill="#9FA0A0" d="M20.757,36.484c-7.301,0-13.242-5.939-13.242-13.242c0-7.303,5.941-13.243,13.242-13.243
			c0.453,0,0.82,0.367,0.82,0.82c0,0.452-0.367,0.82-0.82,0.82c-6.398,0-11.602,5.204-11.602,11.603
			c0,6.396,5.203,11.604,11.602,11.604c6.399,0,11.604-5.205,11.604-11.604c0-0.452,0.365-0.82,0.818-0.82S34,22.79,34,23.242
			C34.001,30.545,28.061,36.484,20.757,36.484z"/>
	</g>
	<g>
		<path fill="#9FA0A0" d="M36.484,21.578H22.423V7.515h0.82c7.301,0,13.241,5.939,13.241,13.242V21.578z M24.063,19.938h10.754
			c-0.402-5.746-5.008-10.352-10.754-10.755V19.938z"/>
	</g>
</g>
</svg>
