<?xml version="1.0" encoding="utf-8"?>
<!-- Generator: Adobe Illustrator 16.0.0, SVG Export Plug-In . SVG Version: 6.00 Build 0)  -->
<!DOCTYPE svg PUBLIC "-//W3C//DTD SVG 1.1//EN" "http://www.w3.org/Graphics/SVG/1.1/DTD/svg11.dtd">
<svg version="1.1" id="图层_1" xmlns="http://www.w3.org/2000/svg" xmlns:xlink="http://www.w3.org/1999/xlink" x="0px" y="0px"
	 width="44px" height="44px" viewBox="0 0 44 44" enable-background="new 0 0 44 44" xml:space="preserve">
<g>
	<path fill="#9FA0A0" d="M34.085,19.291c-0.442,0-0.803,0.359-0.803,0.803v12.719c0,0.961-0.781,1.742-1.742,1.742H11.19
		c-0.961,0-1.744-0.781-1.744-1.742V12.462c0-0.962,0.783-1.743,1.744-1.743h12.717c0.442,0,0.803-0.36,0.803-0.801
		c0-0.443-0.358-0.802-0.803-0.802H11.19c-1.846,0-3.348,1.5-3.348,3.346v20.351c0,1.846,1.502,3.346,3.348,3.346h20.35
		c1.844,0,3.347-1.5,3.347-3.346V20.094C34.887,19.65,34.523,19.291,34.085,19.291z"/>
	<path fill="#9FA0A0" d="M28.997,29.721H13.733c-0.443,0-0.803,0.359-0.803,0.803c0,0.442,0.359,0.8,0.803,0.8h15.264
		c0.44,0,0.801-0.356,0.801-0.8S29.438,29.721,28.997,29.721z"/>
	<path fill="#9FA0A0" d="M28.997,25.014H13.733c-0.443,0-0.803,0.359-0.803,0.803c0,0.442,0.359,0.802,0.803,0.802h15.264
		c0.44,0,0.801-0.358,0.801-0.802S29.438,25.014,28.997,25.014z"/>
	<path fill="#9FA0A0" d="M18.185,20.309h-4.451c-0.443,0-0.803,0.359-0.803,0.802c0,0.441,0.359,0.8,0.803,0.8h4.451
		c0.441,0,0.801-0.358,0.801-0.8C18.985,20.668,18.626,20.309,18.185,20.309z"/>
	<path fill="#9FA0A0" d="M35.473,8.532c-0.445-0.445-1.035-0.689-1.658-0.689c-0.627,0-1.217,0.244-1.658,0.689l-9.506,9.505
		l-1.053,4.367l4.367-1.051l9.509-9.508c0.44-0.443,0.686-1.031,0.686-1.657S35.913,8.973,35.473,8.532z M25.148,19.9l-1.383,0.332
		L24.1,18.85l7.414-7.412l1.049,1.049L25.148,19.9z M34.337,10.714l-0.642,0.64l-1.049-1.049l0.642-0.641
		c0.142-0.14,0.325-0.218,0.524-0.218c0.195,0,0.383,0.078,0.523,0.218c0.139,0.139,0.217,0.326,0.217,0.524
		S34.477,10.572,34.337,10.714z"/>
</g>
</svg>
