<?xml version="1.0" standalone="no"?><!DOCTYPE svg PUBLIC "-//W3C//DTD SVG 1.1//EN" "http://www.w3.org/Graphics/SVG/1.1/DTD/svg11.dtd"><svg t="1577761952337" class="icon" viewBox="0 0 1024 1024" version="1.1" xmlns="http://www.w3.org/2000/svg" p-id="2369" xmlns:xlink="http://www.w3.org/1999/xlink" width="200" height="200"><defs><style type="text/css"></style></defs><path d="M513.4 620.3v158.5c0 2.8 1.1 5.6 3.2 7.7 2.1 2.1 4.9 3.2 7.7 3.2h80.2c2.8 0 5.6-1.1 7.7-3.2 2.1-2.1 3.2-4.9 3.2-7.7V567.6l-81.5 70.2-20.5-17.5zM170.7 778.9c0 2.8 1.1 5.6 3.2 7.7 2.1 2.1 4.9 3.2 7.7 3.2h80.2c2.8 0 5.6-1.1 7.7-3.2 2.1-2.1 3.2-4.9 3.2-7.7V617.1l-102 84.1v77.7z m171.3-219v218.9c0 2.8 1.1 5.6 3.2 7.7 2.1 2.1 4.9 3.2 7.7 3.2h80.2c2.8 0 5.6-1.1 7.7-3.2 2.1-2.1 3.2-4.9 3.2-7.7V561.3l-51-43.4-51 42z m342.7 219c0 2.8 1.1 5.6 3.2 7.7 2.1 2.1 4.9 3.2 7.7 3.2h80.2c2.8 0 5.6-1.1 7.7-3.2 2.1-2.1 3.2-4.9 3.2-7.7V420l-102 87.9v271z m-17.6-544.7c-1.4 0-2.8 0.8-3.4 2.3-0.6 1.4-0.2 3 0.8 4l76.7 75.4-207.3 178.5-140.8-119.9-223 183.9v79.4L393 453.9l140.8 119.9 250.5-215.6 63.3 62.3c1 1 2.6 1.3 4 0.8 1.4-0.6 2.2-1.9 2.2-3.3V238c0-0.9-0.3-1.9-1.1-2.6-0.7-0.7-1.6-1.1-2.6-1.1h-183z m0 0" p-id="2370" fill="#cdcdcd"></path></svg>