<?xml version="1.0" encoding="utf-8"?>
<!-- Generator: Adobe Illustrator 16.0.0, SVG Export Plug-In . SVG Version: 6.00 Build 0)  -->
<!DOCTYPE svg PUBLIC "-//W3C//DTD SVG 1.1//EN" "http://www.w3.org/Graphics/SVG/1.1/DTD/svg11.dtd">
<svg version="1.1" id="图层_1" xmlns="http://www.w3.org/2000/svg" xmlns:xlink="http://www.w3.org/1999/xlink" x="0px" y="0px"
	 width="44px" height="44px" viewBox="0 0 44 44" enable-background="new 0 0 44 44" xml:space="preserve">
<g>
	<g>
		<path fill="#9FA0A0" d="M18.938,25.936l-2.746-8.703l-1.463,3.186h-2.541c-0.453,0-0.82-0.367-0.82-0.818
			c0-0.453,0.367-0.82,0.82-0.82h1.49l2.795-6.098l3.078,9.75l3.387-4.429l1.648,2.421l3.176-6.279l2.086,4.605h1.961
			c0.453,0,0.82,0.368,0.82,0.82c0,0.453-0.367,0.82-0.82,0.82h-3.021l-1.109-2.449l-2.881,5.704l-1.936-2.843L18.938,25.936z"/>
	</g>
	<g>
		<path fill="#9FA0A0" d="M33.388,30.26H10.61c-1.707,0-3.096-1.39-3.096-3.097V11.979c0-1.708,1.389-3.099,3.096-3.099h22.777
			c1.707,0,3.098,1.391,3.098,3.099v15.184C36.485,28.87,35.095,30.26,33.388,30.26z M10.61,10.521
			c-0.803,0-1.457,0.655-1.457,1.459v15.184c0,0.803,0.654,1.457,1.457,1.457h22.777c0.803,0,1.457-0.654,1.457-1.457V11.979
			c0-0.804-0.654-1.459-1.457-1.459H10.61z"/>
	</g>
	<g>
		<path fill="#9FA0A0" d="M35.665,35.119H8.333c-0.453,0-0.818-0.367-0.818-0.82c0-0.452,0.365-0.818,0.818-0.818h27.332
			c0.451,0,0.82,0.366,0.82,0.818C36.485,34.752,36.116,35.119,35.665,35.119z"/>
	</g>
</g>
</svg>
