<?xml version="1.0" encoding="utf-8"?>
<!-- Generator: Adobe Illustrator 16.0.0, SVG Export Plug-In . SVG Version: 6.00 Build 0)  -->
<!DOCTYPE svg PUBLIC "-//W3C//DTD SVG 1.1//EN" "http://www.w3.org/Graphics/SVG/1.1/DTD/svg11.dtd">
<svg version="1.1" id="图层_1" xmlns="http://www.w3.org/2000/svg" xmlns:xlink="http://www.w3.org/1999/xlink" x="0px" y="0px"
	 width="44px" height="44px" viewBox="0 0 44 44" enable-background="new 0 0 44 44" xml:space="preserve">
<g>
	<g>
		<g>
			<path fill="#9FA0A0" d="M21.893,8.166"/>
			<path fill="#9FA0A0" d="M22,6.72c-5.559,0-10.082,4.523-10.082,10.08c0,4.164,5.146,10.317,8.215,13.614l0.016,0.018l0.02,0.021
				c0.502,0.5,1.186,0.799,1.832,0.799c0.729,0,1.43-0.324,1.893-0.867c3.072-3.305,8.184-9.434,8.184-13.584
				C32.076,11.244,27.557,6.72,22,6.72z M22.807,29.432c-0.215,0.268-0.539,0.375-0.807,0.375c-0.271,0-0.596-0.16-0.811-0.375
				c-2.16-2.324-7.826-8.799-7.826-12.631c0-4.803,3.887-8.635,8.637-8.635c4.748,0,8.635,3.832,8.635,8.635
				C30.635,20.632,24.967,27.107,22.807,29.432z"/>
			<path fill="#9FA0A0" d="M24.457,13.83c-0.652-0.65-1.525-1.01-2.457-1.01c-0.934,0-1.807,0.359-2.459,1.01
				c-0.652,0.654-1.01,1.525-1.01,2.459c0,0.932,0.357,1.805,1.01,2.455c0.652,0.652,1.525,1.012,2.459,1.012
				c0.932,0,1.805-0.359,2.457-1.012c0.65-0.65,1.008-1.523,1.008-2.455C25.465,15.355,25.107,14.484,24.457,13.83z M23.451,17.744
				c-0.379,0.385-0.898,0.594-1.451,0.594c-0.555,0-1.072-0.209-1.457-0.594s-0.596-0.902-0.596-1.455
				c0-0.555,0.211-1.072,0.596-1.457c0.385-0.383,0.902-0.594,1.457-0.594c0.553,0,1.072,0.211,1.451,0.594
				c0.387,0.385,0.598,0.902,0.598,1.457C24.049,16.841,23.838,17.359,23.451,17.744z"/>
		</g>
		<path fill="#9FA0A0" d="M22,37.279c-6.779,0-12.27-2.383-12.27-5.318c0-1.902,2.313-3.566,5.777-4.504
			c0.326,0.463,0.654,0.918,0.982,1.361c-3.068,0.646-5.125,1.809-5.125,3.143c0,2.033,4.762,3.682,10.635,3.682
			c5.871,0,10.629-1.648,10.629-3.682c0-1.334-2.055-2.496-5.123-3.145c0.326-0.441,0.656-0.896,0.984-1.359
			c3.465,0.938,5.777,2.602,5.777,4.504C34.268,34.896,28.775,37.279,22,37.279L22,37.279z"/>
	</g>
</g>
</svg>
