<?xml version="1.0" encoding="utf-8"?>
<!-- Generator: Adobe Illustrator 16.0.0, SVG Export Plug-In . SVG Version: 6.00 Build 0)  -->
<!DOCTYPE svg PUBLIC "-//W3C//DTD SVG 1.1//EN" "http://www.w3.org/Graphics/SVG/1.1/DTD/svg11.dtd">
<svg version="1.1" id="图层_1" xmlns="http://www.w3.org/2000/svg" xmlns:xlink="http://www.w3.org/1999/xlink" x="0px" y="0px"
	 width="44px" height="44px" viewBox="0 0 44 44" enable-background="new 0 0 44 44" xml:space="preserve">
<g>
	<path fill="#9FA0A0" d="M35.667,34.336h-2.82V18.291c0-0.527-0.428-0.957-0.955-0.957h-5.67V8.98c0-0.527-0.428-0.956-0.955-0.956
		H12.11c-0.527,0-0.957,0.429-0.957,0.956v25.355H8.335c-0.453,0-0.82,0.367-0.82,0.819c0,0.453,0.367,0.82,0.82,0.82h27.332
		c0.451,0,0.818-0.367,0.818-0.82C36.485,34.703,36.118,34.336,35.667,34.336z M31.208,18.975v15.361h-4.986V18.975H31.208z
		 M12.794,9.664h11.789v8.627v16.045H12.794V9.664z"/>
	<path fill="#9FA0A0" d="M16.151,16.03h5.072c0.453,0,0.82-0.367,0.82-0.82c0-0.452-0.367-0.819-0.82-0.819h-5.072
		c-0.453,0-0.82,0.367-0.82,0.819C15.331,15.663,15.698,16.03,16.151,16.03z"/>
	<path fill="#9FA0A0" d="M16.151,22.819h5.074c0.451,0,0.818-0.367,0.818-0.82s-0.367-0.819-0.818-0.819h-5.074
		c-0.453,0-0.82,0.366-0.82,0.819S15.698,22.819,16.151,22.819z"/>
	<path fill="#9FA0A0" d="M21.224,27.968h-5.072c-0.453,0-0.82,0.367-0.82,0.82s0.367,0.82,0.82,0.82h5.072
		c0.453,0,0.82-0.367,0.82-0.82S21.677,27.968,21.224,27.968z"/>
</g>
</svg>
