<?xml version="1.0" encoding="utf-8"?>
<!-- Generator: Adobe Illustrator 16.0.0, SVG Export Plug-In . SVG Version: 6.00 Build 0)  -->
<!DOCTYPE svg PUBLIC "-//W3C//DTD SVG 1.1//EN" "http://www.w3.org/Graphics/SVG/1.1/DTD/svg11.dtd">
<svg version="1.1" id="图层_1" xmlns="http://www.w3.org/2000/svg" xmlns:xlink="http://www.w3.org/1999/xlink" x="0px" y="0px"
	 width="44px" height="44px" viewBox="0 0 44 44" enable-background="new 0 0 44 44" xml:space="preserve">
<g>
	<g>
		<g>
			<path fill="#9FA0A0" d="M25.59,36.479c-0.453,0-0.818-0.367-0.818-0.82s0.365-0.818,0.818-0.818h10.074
				c0.453,0,0.82,0.365,0.82,0.818s-0.365,0.82-0.82,0.82H25.59z"/>
		</g>
		<g>
			<g>
				<path fill="#9FA0A0" d="M8.346,9.159c-0.451,0-0.82-0.366-0.82-0.818c0-0.453,0.367-0.82,0.82-0.82h10.076
					c0.451,0,0.818,0.367,0.818,0.82c0,0.452-0.367,0.818-0.818,0.818H8.346z"/>
			</g>
			<g>
				<path fill="#9FA0A0" d="M14.199,16.315H8.346c-0.453,0-0.82-0.367-0.82-0.82c0-0.452,0.367-0.818,0.82-0.818h5.854
					c0.453,0,0.822,0.366,0.822,0.818C15.021,15.948,14.652,16.315,14.199,16.315z"/>
			</g>
		</g>
		<g>
			<g>
				<path fill="#9FA0A0" d="M20.068,24.818c-0.209,0-0.418-0.08-0.578-0.24c-0.32-0.32-0.32-0.84,0-1.158l12.033-12.036
					c0.32-0.319,0.84-0.319,1.16,0c0.318,0.321,0.318,0.84,0,1.16L20.648,24.578C20.49,24.738,20.279,24.818,20.068,24.818z"/>
			</g>
			<g>
				<path fill="#9FA0A0" d="M35.664,16.346c-0.209,0-0.418-0.079-0.578-0.24l-7.125-7.124c-0.32-0.319-0.32-0.84,0-1.159
					c0.32-0.32,0.84-0.32,1.16,0l7.123,7.125c0.32,0.319,0.32,0.839,0,1.158C36.084,16.267,35.875,16.346,35.664,16.346z"/>
			</g>
			<g>
				<path fill="#9FA0A0" d="M13.824,36.414c-1.65,0-3.199-0.641-4.363-1.805c-2.418-2.418-2.441-6.287-0.85-7.881l6.828-6.826
					c0.32-0.319,0.838-0.319,1.158,0l7.568,7.566c0.154,0.154,0.24,0.363,0.24,0.58s-0.086,0.426-0.24,0.578l-5.98,5.982
					C17.021,35.773,15.473,36.414,13.824,36.414z M16.02,21.641l-6.248,6.248C8.84,28.82,8.85,31.68,10.619,33.449
					c0.857,0.855,1.994,1.326,3.205,1.326c1.209,0,2.348-0.471,3.203-1.326l5.4-5.4L16.02,21.641z"/>
			</g>
		</g>
	</g>
</g>
</svg>
