<?xml version="1.0" encoding="utf-8"?>
<!-- Generator: Adobe Illustrator 16.0.0, SVG Export Plug-In . SVG Version: 6.00 Build 0)  -->
<!DOCTYPE svg PUBLIC "-//W3C//DTD SVG 1.1//EN" "http://www.w3.org/Graphics/SVG/1.1/DTD/svg11.dtd">
<svg version="1.1" id="图层_1" xmlns="http://www.w3.org/2000/svg" xmlns:xlink="http://www.w3.org/1999/xlink" x="0px" y="0px"
	 width="44px" height="44px" viewBox="0 0 44 44" enable-background="new 0 0 44 44" xml:space="preserve">
<g>
	<g>
		<g>
			<path fill="#9FA0A0" d="M21.999,37.802c-7.152,0-12.969-5.818-12.969-12.971c0-7.15,5.816-12.969,12.969-12.969
				c7.15,0,12.969,5.818,12.969,12.969C34.968,31.983,29.149,37.802,21.999,37.802z M21.999,13.483
				c-6.258,0-11.348,5.09-11.348,11.348c0,6.26,5.09,11.348,11.348,11.348c6.256,0,11.348-5.088,11.348-11.348
				C33.347,18.573,28.255,13.483,21.999,13.483z"/>
		</g>
		<rect x="21.188" y="7.817" fill-rule="evenodd" clip-rule="evenodd" fill="#9FA0A0" width="1.621" height="5.404"/>
		<g>
			<circle fill-rule="evenodd" clip-rule="evenodd" fill="#9FA0A0" cx="32.968" cy="12.258" r="1.081"/>
			
				<rect x="30.94" y="12.532" transform="matrix(0.7071 0.7071 -0.7071 0.7071 19.0534 -17.9638)" fill-rule="evenodd" clip-rule="evenodd" fill="#9FA0A0" width="0.541" height="2.972"/>
		</g>
		<path fill-rule="evenodd" clip-rule="evenodd" fill="#9FA0A0" d="M27.487,7.009c0,0.447-0.363,0.809-0.811,0.809h-9.357
			c-0.447,0-0.811-0.361-0.811-0.809l0,0c0-0.449,0.363-0.811,0.811-0.811h9.357C27.124,6.198,27.487,6.56,27.487,7.009
			L27.487,7.009z"/>
		<g>
			<path fill-rule="evenodd" clip-rule="evenodd" fill="#9FA0A0" d="M22.573,25.271c0,0.447-0.359,0.809-0.809,0.809l0,0
				c-0.447,0-0.811-0.361-0.811-0.809v-7.16c0-0.447,0.363-0.813,0.811-0.813l0,0c0.449,0,0.809,0.365,0.809,0.813V25.271z"/>
			<path fill-rule="evenodd" clip-rule="evenodd" fill="#9FA0A0" d="M28.925,24.458c0.447,0,0.811,0.365,0.811,0.813l0,0
				c0,0.447-0.363,0.809-0.811,0.809h-7.16c-0.447,0-0.811-0.361-0.811-0.809l0,0c0-0.447,0.363-0.813,0.811-0.813H28.925z"/>
		</g>
	</g>
</g>
</svg>
