<?xml version="1.0" encoding="utf-8"?>
<!-- Generator: Adobe Illustrator 16.0.0, SVG Export Plug-In . SVG Version: 6.00 Build 0)  -->
<!DOCTYPE svg PUBLIC "-//W3C//DTD SVG 1.1//EN" "http://www.w3.org/Graphics/SVG/1.1/DTD/svg11.dtd">
<svg version="1.1" id="图层_1" xmlns="http://www.w3.org/2000/svg" xmlns:xlink="http://www.w3.org/1999/xlink" x="0px" y="0px"
	 width="44px" height="44px" viewBox="0 0 44 44" enable-background="new 0 0 44 44" xml:space="preserve">
<g>
	<g>
		<path fill="#9FA0A0" d="M16.908,21.41h-6.17c-1.777,0-3.225-1.446-3.225-3.224v-6.171c0-1.777,1.447-3.224,3.225-3.224h6.17
			c1.777,0,3.223,1.446,3.223,3.224v6.171C20.131,19.963,18.686,21.41,16.908,21.41z M10.738,10.302
			c-0.945,0-1.713,0.769-1.713,1.713v6.171c0,0.944,0.768,1.713,1.713,1.713h6.17c0.945,0,1.713-0.769,1.713-1.713v-6.171
			c0-0.944-0.768-1.713-1.713-1.713H10.738z"/>
	</g>
	<g>
		<path fill="#9FA0A0" d="M28.898,22.688c-0.861,0-1.67-0.335-2.279-0.944l-4.363-4.363c-1.256-1.257-1.256-3.303,0-4.559
			l4.363-4.363c0.609-0.609,1.418-0.944,2.279-0.944s1.67,0.335,2.279,0.944l4.363,4.363c1.258,1.257,1.258,3.302,0,4.558
			l-4.363,4.363C30.568,22.352,29.76,22.688,28.898,22.688z M28.898,9.025c-0.457,0-0.887,0.178-1.211,0.501l-4.363,4.363
			c-0.668,0.668-0.668,1.755,0,2.423l4.363,4.363c0.324,0.323,0.754,0.501,1.211,0.501s0.889-0.178,1.211-0.501l4.363-4.363
			c0.668-0.668,0.668-1.755,0-2.423l-4.363-4.363C29.787,9.203,29.355,9.025,28.898,9.025z"/>
	</g>
	<g>
		<path fill="#9FA0A0" d="M16.908,36.484h-6.17c-1.777,0-3.225-1.445-3.225-3.223v-6.17c0-1.777,1.447-3.225,3.225-3.225h6.17
			c1.777,0,3.223,1.447,3.223,3.225v6.17C20.131,35.039,18.686,36.484,16.908,36.484z M10.738,25.379
			c-0.945,0-1.713,0.768-1.713,1.713v6.17c0,0.943,0.768,1.713,1.713,1.713h6.17c0.945,0,1.713-0.77,1.713-1.713v-6.17
			c0-0.945-0.768-1.713-1.713-1.713H10.738z"/>
	</g>
	<g>
		<path fill="#9FA0A0" d="M31.984,36.484h-6.172c-1.777,0-3.223-1.445-3.223-3.223v-6.17c0-1.777,1.445-3.225,3.223-3.225h6.172
			c1.777,0,3.223,1.447,3.223,3.225v6.17C35.207,35.039,33.762,36.484,31.984,36.484z M25.813,25.379
			c-0.943,0-1.713,0.768-1.713,1.713v6.17c0,0.943,0.77,1.713,1.713,1.713h6.172c0.943,0,1.713-0.77,1.713-1.713v-6.17
			c0-0.945-0.77-1.713-1.713-1.713H25.813z"/>
	</g>
</g>
</svg>
