<?xml version="1.0" encoding="utf-8"?>
<!-- Generator: Adobe Illustrator 16.0.0, SVG Export Plug-In . SVG Version: 6.00 Build 0)  -->
<!DOCTYPE svg PUBLIC "-//W3C//DTD SVG 1.1//EN" "http://www.w3.org/Graphics/SVG/1.1/DTD/svg11.dtd">
<svg version="1.1" id="图层_1" xmlns="http://www.w3.org/2000/svg" xmlns:xlink="http://www.w3.org/1999/xlink" x="0px" y="0px"
	 width="44px" height="44px" viewBox="0 0 44 44" enable-background="new 0 0 44 44" xml:space="preserve">
<g>
	<g>
		<g>
			<g>
				<g>
					<circle fill="#9FA0A0" cx="15.394" cy="14.5" r="1.708"/>
				</g>
				<g>
					<circle fill="#9FA0A0" cx="28.604" cy="14.5" r="1.708"/>
				</g>
			</g>
			<g>
				<path fill="#9FA0A0" d="M22,22.039c-4.219,0-7.653-3.669-7.653-8.176h1.641c0,3.604,2.698,6.537,6.013,6.537
					c3.313,0,6.012-2.933,6.012-6.537h1.641C29.652,18.37,26.219,22.039,22,22.039z"/>
			</g>
		</g>
		<g>
			<path fill="#9FA0A0" d="M32.932,36.485H11.067c-1.959,0-3.553-1.593-3.553-3.553V11.068c0-1.958,1.594-3.554,3.553-3.554h21.865
				c1.961,0,3.553,1.596,3.553,3.554v21.864C36.484,34.893,34.893,36.485,32.932,36.485z M11.067,9.155
				c-1.054,0-1.912,0.86-1.912,1.913v21.864c0,1.055,0.858,1.913,1.912,1.913h21.865c1.057,0,1.914-0.858,1.914-1.913V11.068
				c0-1.053-0.857-1.913-1.914-1.913H11.067z"/>
		</g>
	</g>
</g>
</svg>
