<?xml version="1.0" encoding="utf-8"?>
<!-- Generator: Adobe Illustrator 16.0.0, SVG Export Plug-In . SVG Version: 6.00 Build 0)  -->
<!DOCTYPE svg PUBLIC "-//W3C//DTD SVG 1.1//EN" "http://www.w3.org/Graphics/SVG/1.1/DTD/svg11.dtd">
<svg version="1.1" id="图层_1" xmlns="http://www.w3.org/2000/svg" xmlns:xlink="http://www.w3.org/1999/xlink" x="0px" y="0px"
	 width="44px" height="44px" viewBox="0 0 44 44" enable-background="new 0 0 44 44" xml:space="preserve">
<g>
	<g>
		<g>
			<path fill="#9FA0A0" d="M17.711,21.212h-6.698c-1.931,0-3.499-1.568-3.499-3.5v-6.697c0-1.93,1.568-3.5,3.499-3.5h6.698
				c1.93,0,3.5,1.57,3.5,3.5v6.697C21.211,19.644,19.641,21.212,17.711,21.212z M11.013,9.153c-1.025,0-1.859,0.836-1.859,1.861
				v6.697c0,1.025,0.834,1.861,1.859,1.861h6.698c1.025,0,1.86-0.836,1.86-1.861v-6.697c0-1.025-0.835-1.861-1.86-1.861H11.013z"/>
		</g>
		<g>
			<path fill="#9FA0A0" d="M32.985,21.212h-6.699c-1.93,0-3.499-1.568-3.499-3.5v-6.697c0-1.93,1.569-3.5,3.499-3.5h6.699
				c1.93,0,3.499,1.57,3.499,3.5v6.697C36.484,19.644,34.915,21.212,32.985,21.212z M26.286,9.153c-1.024,0-1.859,0.836-1.859,1.861
				v6.697c0,1.025,0.835,1.861,1.859,1.861h6.699c1.025,0,1.86-0.836,1.86-1.861v-6.697c0-1.025-0.835-1.861-1.86-1.861H26.286z"/>
		</g>
		<g>
			<path fill="#9FA0A0" d="M17.711,36.485h-6.698c-1.931,0-3.499-1.57-3.499-3.5v-6.699c0-1.93,1.568-3.498,3.499-3.498h6.698
				c1.93,0,3.5,1.568,3.5,3.498v6.699C21.211,34.915,19.641,36.485,17.711,36.485z M11.013,24.427c-1.025,0-1.859,0.836-1.859,1.859
				v6.699c0,1.025,0.834,1.859,1.859,1.859h6.698c1.025,0,1.86-0.834,1.86-1.859v-6.699c0-1.023-0.835-1.859-1.86-1.859H11.013z"/>
		</g>
		<g>
			<path fill="#9FA0A0" d="M32.985,36.485h-6.699c-1.93,0-3.499-1.57-3.499-3.5v-6.699c0-1.93,1.569-3.498,3.499-3.498h6.699
				c1.93,0,3.499,1.568,3.499,3.498v6.699C36.484,34.915,34.915,36.485,32.985,36.485z M26.286,24.427
				c-1.024,0-1.859,0.836-1.859,1.859v6.699c0,1.025,0.835,1.859,1.859,1.859h6.699c1.025,0,1.86-0.834,1.86-1.859v-6.699
				c0-1.023-0.835-1.859-1.86-1.859H26.286z"/>
		</g>
	</g>
</g>
</svg>
