<?xml version="1.0" standalone="no"?><!DOCTYPE svg PUBLIC "-//W3C//DTD SVG 1.1//EN" "http://www.w3.org/Graphics/SVG/1.1/DTD/svg11.dtd"><svg t="1577936611626" class="icon" viewBox="0 0 1024 1024" version="1.1" xmlns="http://www.w3.org/2000/svg" p-id="24805" xmlns:xlink="http://www.w3.org/1999/xlink" width="200" height="200"><defs><style type="text/css"></style></defs><path d="M505.6 610.4c-54.9 0-99.5-43.9-99.5-97.9s44.6-97.9 99.5-97.9 99.5 43.9 99.5 97.9c0 18.1-5.2 35.9-14.8 51.2h58.6c6.1-16.4 9.2-33.7 9.2-51.2 0-82.7-68.4-149.9-152.4-149.9s-152.4 67.2-152.4 149.9 68.4 150 152.4 150l-0.1-52.1z m0 0" p-id="24806" fill="#cdcdcd"></path><path d="M493 818.8h-42.3l-11.1-80.1-15-5.4c-26.6-9.4-51.3-23.3-73-41.3l-12.3-10.2-75.2 31.7-55.6-94.7 64.9-49.5-2.8-15.5c-2.6-13.7-3.9-27.5-4-41.4 0.1-13.9 1.4-27.8 4-41.4l2.8-15.5-65-49.5 54.9-93.6 75.9 30.5 12.2-10.2c21.7-18 46.4-32 73-41.3l15-5.4 11.1-80.1h109.8l11.1 80.2 15.1 5.3c26.6 9.3 51.3 23.3 72.9 41.3l12.3 10.3 75.2-31.8 55.6 94.8-64.9 49.5 2.8 15.5c5.3 27.4 5.3 55.5 0 82.8l-1.8 9.8h77.8l-21.5-16.4c3.1-23.1 3.1-46.5 0-69.6l42.6-32.4c20-12.5 26.3-38.6 14.4-58.9l-62.2-106.1c-5.9-10.2-15.7-17.5-27-20.5-10.7-2.8-22.1-1.6-32 3.4l-49.8 20c-19-14-39.6-25.7-61.4-34.7l-7.3-52.6c-1.1-23.5-20.6-41.8-44.6-41.8H443.3c-23.9 0-43.4 18.3-44.6 41.8l-7.3 52.5c-21.8 9.1-42.3 20.7-61.3 34.7l-49.8-20c-21.3-10.7-47.1-3.2-59.1 17.1L159 386.4c-11.9 20.3-5.4 46.4 14.5 58.8l42.6 32.5c-3.1 23.1-3.1 46.5 0 69.6l-42.6 32.5c-20.1 12.8-26.5 38.6-14.5 58.9l62.3 106.1c6 10.2 15.7 17.6 27.2 20.5 10.7 2.8 22.1 1.6 32-3.4l49.8-20c19 14 39.5 25.6 61.3 34.7l7.3 52.6c1.2 23.5 20.7 41.8 44.6 41.8H493c6.9 0.1 12.5-5.5 12.6-12.4v-27.3c0-3.3-1.4-6.5-3.7-8.8-2.4-2.4-5.6-3.7-8.9-3.7z m0 0" p-id="24807" fill="#cdcdcd"></path><path d="M824.5 603.5H693.6c-9.7-10.9-23.9-17.8-39.6-17.8-29.2 0-53 23.8-53 53 0 27 20.3 49.4 46.5 52.6l54.5 79.9c-10.8 8.7-18.1 21.6-19.4 36.2H565.5c-11 0-20 9-20 20s9 20 20 20h130.1c9.7 11 23.9 18 39.7 18 29.2 0 53-23.8 53-53 0-26.7-19.9-48.9-45.7-52.5l-54.8-80.4c10.5-8.8 17.6-21.5 18.9-35.9h117.7c11 0 20-9 20-20s-8.9-20.1-19.9-20.1z m-72.2 208.8c0 9.4-7.6 17-17 17s-17-7.6-17-17c0-1.7 0.3-3.4 0.7-5 0.7-2.3 1.9-4.4 3.4-6.1 3.1-3.6 7.7-5.9 12.8-5.9 9.5 0 17.1 7.7 17.1 17z m-85-163c-3.1 3.9-7.9 6.4-13.3 6.4-9.4 0-17-7.6-17-17s7.6-17 17-17 17 7.6 17 17c0 1.7-0.3 3.3-0.7 4.8-0.6 2.1-1.7 4.1-3 5.8z" p-id="24808" fill="#cdcdcd"></path></svg>