<?xml version="1.0" encoding="utf-8"?>
<!-- Generator: Adobe Illustrator 16.0.0, SVG Export Plug-In . SVG Version: 6.00 Build 0)  -->
<!DOCTYPE svg PUBLIC "-//W3C//DTD SVG 1.1//EN" "http://www.w3.org/Graphics/SVG/1.1/DTD/svg11.dtd">
<svg version="1.1" id="图层_1" xmlns="http://www.w3.org/2000/svg" xmlns:xlink="http://www.w3.org/1999/xlink" x="0px" y="0px"
	 width="44px" height="44px" viewBox="0 0 44 44" enable-background="new 0 0 44 44" xml:space="preserve">
<g>
	<g>
		<path fill="#9FA0A0" d="M28.628,21.356c-0.002,3.658-2.979,6.626-6.639,6.621c-3.66-0.011-6.621-2.976-6.621-6.628
			c0-3.655,2.98-6.629,6.639-6.619C25.667,14.737,28.632,17.702,28.628,21.356L28.628,21.356z M21.999,25.98
			c2.556,0,4.633-2.072,4.633-4.628c0-2.553-2.073-4.629-4.633-4.629c-2.557,0-4.635,2.073-4.635,4.629
			C17.364,23.905,19.44,25.98,21.999,25.98L21.999,25.98z M7.286,21.458c0.057-3.388,1.393-6.782,4.081-9.632
			c0.112-0.12,0.223-0.249,0.351-0.352c0.373-0.306,0.939-0.261,1.294,0.088c0.356,0.349,0.406,0.928,0.091,1.306
			c-0.413,0.495-0.86,0.959-1.25,1.471c-1.24,1.627-2.029,3.454-2.381,5.471c-0.232,1.325-0.254,2.656-0.061,3.986
			c0.281,1.929,0.968,3.697,2.059,5.31c0.441,0.65,0.938,1.26,1.498,1.809c0.397,0.386,0.41,0.963,0.05,1.377
			c-0.341,0.395-0.938,0.475-1.341,0.115c-0.384-0.34-0.732-0.723-1.059-1.115c-1.412-1.725-2.385-3.666-2.913-5.829
			C7.425,24.316,7.286,23.152,7.286,21.458L7.286,21.458z M36.714,22.4c-0.054,3.441-1.366,6.811-4.01,9.652
			c-0.108,0.119-0.213,0.243-0.341,0.341c-0.381,0.291-0.893,0.256-1.258-0.072c-0.348-0.309-0.428-0.834-0.182-1.235
			c0.066-0.108,0.146-0.213,0.236-0.306c1.648-1.725,2.736-3.745,3.256-6.07c0.367-1.661,0.398-3.335,0.09-5.009
			c-0.465-2.521-1.594-4.701-3.365-6.545c-0.207-0.216-0.42-0.415-0.472-0.73c-0.063-0.386,0.124-0.798,0.474-1.009
			c0.347-0.213,0.82-0.209,1.107,0.064c0.406,0.387,0.799,0.789,1.15,1.222c1.459,1.777,2.438,3.788,2.947,6.028
			C36.593,19.794,36.708,20.876,36.714,22.4L36.714,22.4z M22.007,36.713c-2.947-0.056-5.656-0.859-8.125-2.475
			c-0.453-0.297-0.635-0.729-0.501-1.182c0.187-0.637,0.933-0.92,1.5-0.553c0.687,0.445,1.395,0.846,2.147,1.163
			c1.211,0.513,2.468,0.829,3.773,0.953c1.852,0.172,3.652-0.046,5.406-0.657c0.846-0.293,1.65-0.676,2.414-1.146
			c0.199-0.121,0.395-0.25,0.594-0.371c0.461-0.276,1.057-0.131,1.354,0.334c0.291,0.459,0.152,1.057-0.314,1.367
			c-1.847,1.232-3.859,2.039-6.059,2.357C23.473,36.609,22.734,36.645,22.007,36.713L22.007,36.713z M30.689,10.628
			c-0.018,0.376-0.188,0.672-0.522,0.859c-0.33,0.184-0.668,0.171-0.995-0.019c-0.3-0.175-0.593-0.358-0.896-0.532
			c-1.202-0.689-2.485-1.177-3.851-1.426c-3.387-0.622-6.535-0.004-9.428,1.87c-0.314,0.206-0.637,0.31-1,0.171
			c-0.358-0.136-0.579-0.398-0.643-0.775c-0.059-0.367,0.042-0.708,0.35-0.91c0.572-0.374,1.156-0.738,1.764-1.05
			c1.501-0.771,3.102-1.241,4.781-1.428c3.479-0.391,6.71,0.34,9.675,2.212c0.189,0.122,0.378,0.253,0.542,0.409
			C30.637,10.165,30.684,10.39,30.689,10.628L30.689,10.628z"/>
	</g>
</g>
</svg>
