<?xml version="1.0" encoding="utf-8"?>
<!-- Generator: Adobe Illustrator 16.0.0, SVG Export Plug-In . SVG Version: 6.00 Build 0)  -->
<!DOCTYPE svg PUBLIC "-//W3C//DTD SVG 1.1//EN" "http://www.w3.org/Graphics/SVG/1.1/DTD/svg11.dtd">
<svg version="1.1" id="图层_1" xmlns="http://www.w3.org/2000/svg" xmlns:xlink="http://www.w3.org/1999/xlink" x="0px" y="0px"
	 width="44px" height="44px" viewBox="0 0 44 44" enable-background="new 0 0 44 44" xml:space="preserve">
<path fill="#9FA0A0" d="M30.863,26.154l0.719-0.715l-1.764-1.764l-2.146,2.146l-2.53-2.529l4.259-4.256
	c2.242,0.609,4.633-0.121,6.154-1.88c1.521-1.758,1.898-4.231,0.975-6.362l-0.727-1.692l-2.871,2.866l-0.792,0.012l0.01-0.706
	l2.911-2.909l-1.689-0.728c-2.133-0.921-4.605-0.541-6.362,0.979c-1.755,1.521-2.487,3.914-1.882,6.157l-4.256,4.253l-4.243-4.246
	l0.82-0.821c0.338-0.337,0.338-0.883,0-1.22l-5.425-5.428c-0.338-0.335-0.884-0.335-1.22,0l-3.58,3.582
	c-0.337,0.334-0.337,0.88,0,1.217l5.428,5.429c0.161,0.161,0.381,0.254,0.611,0.251c0.227,0,0.445-0.091,0.607-0.251l0.992-0.994
	l4.243,4.241l-4.259,4.256c-2.242-0.604-4.634,0.131-6.152,1.888c-1.52,1.757-1.898,4.228-0.978,6.36l0.73,1.684l2.911-2.908
	l0.706-0.011l-0.011,0.797l-2.868,2.87l1.69,0.725c2.131,0.919,4.601,0.537,6.355-0.981c1.756-1.519,2.487-3.908,1.886-6.149
	l4.257-4.258l2.532,2.533l-2.146,2.146l1.763,1.764l0.715-0.715l4.842,4.84c0.615,0.615,1.446,0.961,2.313,0.961
	c1.323-0.001,2.516-0.799,3.021-2.022c0.507-1.222,0.227-2.629-0.708-3.565L30.863,26.154z M13.26,15.708L9.051,11.5l2.361-2.356
	l4.207,4.205L13.26,15.708z M23.043,23.292l-5.621,5.621l0.158,0.442c0.588,1.653,0.178,3.498-1.056,4.745
	c-1.235,1.248-3.073,1.679-4.733,1.109l1.736-1.737l0.037-2.92l-2.831,0.04l-1.783,1.784c-0.573-1.662-0.146-3.506,1.106-4.741
	c1.25-1.236,3.098-1.645,4.752-1.054l0.443,0.16l5.621-5.622l5.954-5.952l-0.159-0.442c-0.59-1.655-0.18-3.502,1.057-4.75
	c1.235-1.248,3.076-1.677,4.738-1.104l-1.788,1.78l-0.038,2.837l2.922-0.046l1.736-1.738c0.571,1.658,0.141,3.499-1.107,4.734
	c-1.248,1.234-3.094,1.646-4.746,1.056L29,17.337L23.043,23.292z M34.621,34.539c-0.684,0.683-1.783,0.701-2.488,0.04l-5.563-5.56
	l1.436-1.435l1.098-1.097l5.558,5.563C35.322,32.755,35.305,33.857,34.621,34.539z"/>
</svg>
