<?xml version="1.0" encoding="utf-8"?>
<!-- Generator: Adobe Illustrator 16.0.0, SVG Export Plug-In . SVG Version: 6.00 Build 0)  -->
<!DOCTYPE svg PUBLIC "-//W3C//DTD SVG 1.1//EN" "http://www.w3.org/Graphics/SVG/1.1/DTD/svg11.dtd">
<svg version="1.1" id="图层_1" xmlns="http://www.w3.org/2000/svg" xmlns:xlink="http://www.w3.org/1999/xlink" x="0px" y="0px"
	 width="44px" height="44px" viewBox="0 0 44 44" enable-background="new 0 0 44 44" xml:space="preserve">
<g>
	<path fill="#9FA0A0" d="M32.129,36.174c-1.148,0-2.229-0.439-3.039-1.24l-7.006-6.912c-1.271,0.514-2.618,0.773-4.008,0.773
		c-5.852,0-10.613-4.702-10.613-10.483c-0.004-1.754,0.445-3.491,1.295-5.027l0.525-0.949l6.356,6.272
		c0.032,0.034,0.073,0.04,0.101,0.04c0.025,0,0.065-0.006,0.101-0.041l2.553-2.517c0.023-0.025,0.034-0.054,0.034-0.084
		c0-0.03-0.011-0.059-0.032-0.081l-6.385-6.298l0.983-0.53c1.553-0.831,3.309-1.272,5.078-1.272c5.852,0,10.616,4.704,10.616,10.484
		c0,1.176-0.195,2.322-0.578,3.416l7.164,7.072c0.801,0.789,1.262,1.889,1.262,3.014c0.001,1.125-0.457,2.225-1.258,3.017
		l-0.109,0.106C34.357,35.732,33.279,36.174,32.129,36.174z M22.438,26.059l7.809,7.705c0.502,0.494,1.17,0.767,1.883,0.767
		c0.716,0,1.384-0.271,1.884-0.767l0.108-0.107c0.489-0.483,0.771-1.156,0.769-1.846c0-0.688-0.279-1.358-0.771-1.844l-7.938-7.836
		l0.211-0.511c0.432-1.05,0.649-2.162,0.649-3.312c0-4.874-4.022-8.84-8.969-8.84c-1.117,0-2.228,0.207-3.264,0.604l4.74,4.679
		c0.333,0.327,0.525,0.785,0.525,1.254c0,0.47-0.192,0.927-0.525,1.255l-2.555,2.521c-0.338,0.332-0.783,0.514-1.254,0.514
		c-0.473,0-0.916-0.182-1.254-0.514l-4.762-4.698c-0.407,1.025-0.619,2.122-0.616,3.228c0,4.875,4.022,8.84,8.968,8.84
		c1.34,0,2.635-0.286,3.84-0.851L22.438,26.059z"/>
</g>
</svg>
