<?xml version="1.0" encoding="utf-8"?>
<!-- Generator: Adobe Illustrator 16.0.0, SVG Export Plug-In . SVG Version: 6.00 Build 0)  -->
<!DOCTYPE svg PUBLIC "-//W3C//DTD SVG 1.1//EN" "http://www.w3.org/Graphics/SVG/1.1/DTD/svg11.dtd">
<svg version="1.1" id="图层_1" xmlns="http://www.w3.org/2000/svg" xmlns:xlink="http://www.w3.org/1999/xlink" x="0px" y="0px"
	 width="44px" height="44px" viewBox="0 0 44 44" enable-background="new 0 0 44 44" xml:space="preserve">
<g>
	<path fill="#9FA0A0" d="M9.153,30.199V11.068c0-1.056,0.858-1.914,1.913-1.914h16.399c1.055,0,1.913,0.858,1.913,1.914v9.491h1.64
		v-9.491c0-1.959-1.594-3.554-3.553-3.554H11.066c-1.959,0-3.553,1.595-3.553,3.554v19.131c0,1.959,1.594,3.553,3.553,3.553h9.519
		v-1.639h-9.519C10.012,32.113,9.153,31.254,9.153,30.199z"/>
	<path fill="#9FA0A0" d="M25.415,12.685H13.116c-0.452,0-0.82,0.367-0.82,0.82c0,0.452,0.368,0.819,0.82,0.819h12.299
		c0.453,0,0.819-0.367,0.819-0.819C26.234,13.052,25.868,12.685,25.415,12.685z"/>
	<path fill="#9FA0A0" d="M26.234,18.561c0-0.452-0.366-0.819-0.819-0.819H13.116c-0.452,0-0.82,0.367-0.82,0.819
		c0,0.453,0.368,0.82,0.82,0.82h12.299C25.868,19.381,26.234,19.014,26.234,18.561z"/>
	<path fill="#9FA0A0" d="M13.116,22.799c-0.452,0-0.82,0.365-0.82,0.818s0.368,0.82,0.82,0.82h6.15c0.452,0,0.819-0.367,0.819-0.82
		s-0.367-0.818-0.819-0.818H13.116z"/>
	<path fill="#9FA0A0" d="M31.956,27.654h-0.931l0.795-0.795c0.32-0.32,0.32-0.84,0-1.16c-0.319-0.32-0.84-0.32-1.159,0l-1.146,1.146
		l-1.146-1.146c-0.32-0.318-0.84-0.318-1.159,0c-0.319,0.32-0.319,0.84-0.001,1.16l0.795,0.795h-0.93c-0.452,0-0.82,0.367-0.82,0.82
		c0,0.452,0.368,0.819,0.82,0.819h1.621v0.658H27.75c-0.453,0-0.82,0.366-0.82,0.819s0.367,0.82,0.82,0.82h0.945v1.158
		c0,0.453,0.367,0.82,0.82,0.82c0.451,0,0.818-0.367,0.818-0.82v-1.158h0.945c0.453,0,0.82-0.367,0.82-0.82s-0.367-0.819-0.82-0.819
		h-0.945v-0.658h1.621c0.453,0,0.82-0.367,0.82-0.819C32.775,28.021,32.409,27.654,31.956,27.654z"/>
	<path fill="#9FA0A0" d="M29.516,22.547c-3.844,0-6.97,3.127-6.97,6.969c0,3.844,3.126,6.969,6.97,6.969s6.969-3.125,6.969-6.969
		C36.484,25.674,33.357,22.547,29.516,22.547z M29.516,34.846c-2.938,0-5.33-2.391-5.33-5.33c0-2.938,2.392-5.33,5.33-5.33
		s5.33,2.392,5.33,5.33C34.846,32.455,32.454,34.846,29.516,34.846z"/>
</g>
</svg>
