<?xml version="1.0" encoding="utf-8"?>
<!-- Generator: Adobe Illustrator 16.0.0, SVG Export Plug-In . SVG Version: 6.00 Build 0)  -->
<!DOCTYPE svg PUBLIC "-//W3C//DTD SVG 1.1//EN" "http://www.w3.org/Graphics/SVG/1.1/DTD/svg11.dtd">
<svg version="1.1" id="图层_1" xmlns="http://www.w3.org/2000/svg" xmlns:xlink="http://www.w3.org/1999/xlink" x="0px" y="0px"
	 width="44px" height="44px" viewBox="0 0 44 44" enable-background="new 0 0 44 44" xml:space="preserve">
<g>
	<path fill="#9FA0A0" d="M6.789,33.181c-0.449,0-0.813-0.364-0.813-0.813c0-0.449,0.364-0.813,0.813-0.813H20.25
		c0.448,0,0.813,0.364,0.813,0.813c0,0.448-0.365,0.813-0.813,0.813H6.789z"/>
	<path fill="#9FA0A0" d="M6.789,24.343c-0.449,0-0.813-0.363-0.813-0.813c0-0.448,0.364-0.813,0.813-0.813h5.923
		c0.448,0,0.813,0.364,0.813,0.813c0,0.449-0.364,0.813-0.813,0.813H6.789z"/>
	<path fill="#9FA0A0" d="M6.789,15.155c-0.449,0-0.813-0.363-0.813-0.813c0-0.447,0.364-0.812,0.813-0.812h6.967
		c0.447,0,0.812,0.364,0.812,0.812c0,0.449-0.364,0.813-0.812,0.813H6.789z"/>
	<path fill="#9FA0A0" d="M37.212,33.181c-0.216,0-0.421-0.084-0.573-0.238l-6.111-6.109l-0.07,0.057
		c-1.63,1.339-3.613,2.047-5.735,2.047c-2.422,0-4.696-0.942-6.406-2.653c-1.711-1.712-2.653-3.987-2.653-6.405
		c0-2.422,0.942-4.695,2.653-6.404c1.71-1.712,3.984-2.654,6.406-2.654c2.419,0,4.693,0.942,6.405,2.654
		c1.711,1.709,2.653,3.984,2.653,6.404c0,2.121-0.708,4.104-2.046,5.735l-0.058,0.07l6.11,6.11c0.152,0.152,0.237,0.357,0.237,0.574
		s-0.085,0.42-0.237,0.574C37.633,33.097,37.429,33.181,37.212,33.181z M24.722,12.444c-1.984,0-3.851,0.773-5.257,2.178
		c-1.404,1.404-2.176,3.271-2.176,5.256s0.771,3.852,2.176,5.256s3.271,2.178,5.257,2.178c1.984,0,3.851-0.773,5.256-2.178
		c1.404-1.404,2.178-3.271,2.178-5.256c0-1.985-0.773-3.852-2.178-5.256C28.571,13.218,26.705,12.444,24.722,12.444z"/>
</g>
</svg>
