<?xml version="1.0" encoding="utf-8"?>
<!-- Generator: Adobe Illustrator 16.0.0, SVG Export Plug-In . SVG Version: 6.00 Build 0)  -->
<!DOCTYPE svg PUBLIC "-//W3C//DTD SVG 1.1//EN" "http://www.w3.org/Graphics/SVG/1.1/DTD/svg11.dtd">
<svg version="1.1" id="图层_1" xmlns="http://www.w3.org/2000/svg" xmlns:xlink="http://www.w3.org/1999/xlink" x="0px" y="0px"
	 width="44px" height="44px" viewBox="0 0 44 44" enable-background="new 0 0 44 44" xml:space="preserve">
<g>
	<g>
		<path fill="#9FA0A0" d="M22,24.717c-4.742,0-8.602-3.857-8.602-8.6S17.258,7.514,22,7.514c4.744,0,8.604,3.859,8.604,8.603
			S26.744,24.717,22,24.717z M22,9.155c-3.838,0-6.963,3.123-6.963,6.962c0,3.838,3.125,6.961,6.963,6.961
			c3.842,0,6.963-3.124,6.963-6.961C28.963,12.278,25.842,9.155,22,9.155z"/>
	</g>
	<g>
		<path fill="#9FA0A0" d="M34.592,36.484H9.406v-0.818c0-6.943,5.65-12.594,12.594-12.594s12.592,5.65,12.592,12.594V36.484z
			 M11.078,34.846h21.846c-0.42-5.658-5.16-10.133-10.924-10.133S11.5,29.188,11.078,34.846z"/>
	</g>
</g>
</svg>
