<?xml version="1.0" encoding="utf-8"?>
<!-- Generator: Adobe Illustrator 16.0.0, SVG Export Plug-In . SVG Version: 6.00 Build 0)  -->
<!DOCTYPE svg PUBLIC "-//W3C//DTD SVG 1.1//EN" "http://www.w3.org/Graphics/SVG/1.1/DTD/svg11.dtd">
<svg version="1.1" id="图层_1" xmlns="http://www.w3.org/2000/svg" xmlns:xlink="http://www.w3.org/1999/xlink" x="0px" y="0px"
	 width="44px" height="44px" viewBox="0 0 44 44" enable-background="new 0 0 44 44" xml:space="preserve">
<g>
	<g>
		<path fill="#9FA0A0" d="M26.34,35.678c-0.523,0-1.039-0.219-1.367-0.582c-0.453-0.494-1.881-1.779-3.048-1.779
			c-1.163,0-2.613,1.291-3.03,1.742c-0.329,0.361-0.839,0.576-1.36,0.576c-0.246,0-0.481-0.047-0.696-0.143L16.8,35.477
			l-3.555-1.988l-0.035-0.025c-0.646-0.453-0.893-1.338-0.571-2.061c0.003-0.006,0.326-0.754,0.326-1.439
			c0-2.076-1.688-3.766-3.766-3.766H9.075H9.051c-0.597,0-1.08-0.527-1.234-1.348c-0.013-0.064-0.303-1.615-0.303-2.838
			s0.29-2.773,0.303-2.84c0.157-0.83,0.65-1.359,1.258-1.346H9.2c2.077,0,3.766-1.691,3.766-3.766c0-0.684-0.323-1.436-0.328-1.443
			c-0.319-0.721-0.072-1.607,0.579-2.059l0.035-0.025l3.75-2.059l0.041-0.018c0.211-0.088,0.442-0.135,0.688-0.135
			c0.52,0,1.028,0.209,1.362,0.561c0.442,0.463,1.848,1.67,2.983,1.67c1.124,0,2.518-1.182,2.961-1.639
			c0.332-0.342,0.838-0.551,1.352-0.551c0.25,0,0.486,0.049,0.699,0.141l0.039,0.018l3.621,2.012l0.037,0.025
			c0.648,0.451,0.895,1.338,0.572,2.061c0,0-0.326,0.758-0.326,1.441c0,2.074,1.689,3.766,3.766,3.766h0.129
			c0.604-0.014,1.098,0.516,1.254,1.346c0.014,0.066,0.305,1.617,0.305,2.84s-0.291,2.773-0.305,2.838
			c-0.156,0.828-0.65,1.359-1.254,1.348h-0.127c-2.078,0-3.768,1.689-3.768,3.766c0,0.686,0.326,1.434,0.33,1.443
			c0.318,0.719,0.072,1.604-0.576,2.057l-0.037,0.025l-3.682,2.037l-0.039,0.016C26.816,35.633,26.586,35.678,26.34,35.678
			L26.34,35.678z M26.23,33.943c0.016,0.012,0.061,0.029,0.109,0.029h0.008l3.441-1.904c-0.084-0.193-0.463-1.129-0.463-2.105
			c0-2.922,2.299-5.316,5.186-5.465c0.041-0.229,0.266-1.52,0.266-2.486s-0.225-2.258-0.266-2.486
			c-2.887-0.15-5.188-2.545-5.188-5.467c0-0.979,0.383-1.916,0.465-2.107L26.4,10.07h-0.012c-0.057,0-0.111,0.021-0.129,0.033
			c-0.059,0.059-0.547,0.557-1.252,1.053c-1.043,0.732-2.031,1.105-2.935,1.105c-0.909,0-1.905-0.379-2.955-1.129
			c-0.709-0.502-1.201-1.012-1.258-1.072c-0.017-0.012-0.073-0.033-0.13-0.033h-0.015l-3.505,1.926
			c0.082,0.195,0.464,1.129,0.464,2.105c0,2.922-2.303,5.316-5.188,5.467c-0.041,0.229-0.268,1.52-0.268,2.486
			s0.227,2.258,0.268,2.486c2.886,0.148,5.188,2.543,5.188,5.465c0,0.979-0.383,1.922-0.467,2.109l3.321,1.854h0.005
			c0.049,0,0.096-0.016,0.111-0.027c0.063-0.064,0.558-0.588,1.273-1.115c1.063-0.777,2.075-1.174,3.006-1.174
			c0.939,0,1.958,0.402,3.027,1.197C25.668,33.34,26.168,33.875,26.23,33.943L26.23,33.943z M26.23,33.943"/>
		<path fill="#9FA0A0" d="M21.934,27.008c-2.764,0-5.015-2.25-5.015-5.016c0-2.764,2.251-5.016,5.015-5.016
			c2.769,0,5.019,2.252,5.019,5.016C26.953,24.758,24.703,27.008,21.934,27.008L21.934,27.008z M21.934,18.682
			c-1.823,0-3.311,1.484-3.311,3.311c0,1.828,1.487,3.311,3.311,3.311c1.826,0,3.31-1.482,3.31-3.311
			C25.244,20.166,23.76,18.682,21.934,18.682L21.934,18.682z M21.934,18.682"/>
	</g>
</g>
</svg>
