<?xml version="1.0" encoding="utf-8"?>
<!-- Generator: Adobe Illustrator 16.0.0, SVG Export Plug-In . SVG Version: 6.00 Build 0)  -->
<!DOCTYPE svg PUBLIC "-//W3C//DTD SVG 1.1//EN" "http://www.w3.org/Graphics/SVG/1.1/DTD/svg11.dtd">
<svg version="1.1" id="图层_1" xmlns="http://www.w3.org/2000/svg" xmlns:xlink="http://www.w3.org/1999/xlink" x="0px" y="0px"
	 width="44px" height="44px" viewBox="0 0 44 44" enable-background="new 0 0 44 44" xml:space="preserve">
<g>
	<g>
		<path fill="#9FA0A0" d="M35.721,11.709"/>
		<path fill="#9FA0A0" d="M27.539,20.458h-4.617l3.578-3.575c0.32-0.323,0.32-0.843,0-1.164c-0.32-0.322-0.842-0.322-1.164,0
			L22,19.053l-3.338-3.334c-0.32-0.322-0.842-0.322-1.164,0c-0.322,0.321-0.322,0.841,0,1.164l3.576,3.575h-4.617
			c-0.455,0-0.822,0.369-0.822,0.823c0,0.455,0.367,0.824,0.822,0.824h4.717v3.572H17.99c-0.453,0-0.824,0.369-0.824,0.824
			s0.371,0.823,0.824,0.823h3.184v3.668c0,0.455,0.371,0.823,0.826,0.823c0.453,0,0.822-0.368,0.822-0.823v-3.668h3.186
			c0.455,0,0.822-0.368,0.822-0.823s-0.367-0.824-0.822-0.824h-3.186v-3.572h4.717c0.455,0,0.824-0.369,0.824-0.824
			C28.363,20.827,27.994,20.458,27.539,20.458z"/>
		<path fill="#9FA0A0" d="M32.975,11.435h-8.373l-2.158-3.294h-11.42c-1.924,0-3.494,1.527-3.566,3.432H7.455v20.719
			c0,1.967,1.6,3.568,3.568,3.568h21.951c1.969,0,3.57-1.602,3.57-3.568V15.002C36.545,13.035,34.943,11.435,32.975,11.435z
			 M34.898,32.291c0,1.059-0.865,1.92-1.924,1.92H11.023c-1.061,0-1.924-0.861-1.924-1.92V13.082h23.875
			c1.059,0,1.924,0.861,1.924,1.92V32.291z"/>
	</g>
</g>
</svg>
