<?xml version="1.0" encoding="utf-8"?>
<!-- Generator: Adobe Illustrator 16.0.0, SVG Export Plug-In . SVG Version: 6.00 Build 0)  -->
<!DOCTYPE svg PUBLIC "-//W3C//DTD SVG 1.1//EN" "http://www.w3.org/Graphics/SVG/1.1/DTD/svg11.dtd">
<svg version="1.1" id="图层_1" xmlns="http://www.w3.org/2000/svg" xmlns:xlink="http://www.w3.org/1999/xlink" x="0px" y="0px"
	 width="44px" height="44px" viewBox="0 0 44 44" enable-background="new 0 0 44 44" xml:space="preserve">
<g>
	<g>
		<g>
			<path fill="#9FA0A0" d="M19.869,36.484h-3.568c-0.529,0-0.957-0.428-0.957-0.957V22.391c0-0.525,0.428-0.955,0.957-0.955h3.568
				c0.529,0,0.957,0.43,0.957,0.955v13.136C20.826,36.057,20.398,36.484,19.869,36.484z M16.982,34.846h2.203v-11.77h-2.203V34.846z
				"/>
		</g>
		<g>
			<path fill="#9FA0A0" d="M12.041,36.484h-3.57c-0.527,0-0.957-0.428-0.957-0.957v-6.305c0-0.525,0.43-0.955,0.957-0.955h3.57
				c0.527,0,0.955,0.43,0.955,0.955v6.305C12.996,36.057,12.568,36.484,12.041,36.484z M9.154,34.846h2.203v-4.938H9.154V34.846z"/>
		</g>
		<g>
			<path fill="#9FA0A0" d="M27.699,36.484h-3.57c-0.529,0-0.957-0.428-0.957-0.957V16.372c0-0.527,0.428-0.957,0.957-0.957h3.57
				c0.527,0,0.955,0.43,0.955,0.957v19.156C28.654,36.057,28.227,36.484,27.699,36.484z M24.811,34.846h2.205V17.055h-2.205V34.846z
				"/>
		</g>
		<g>
			<path fill="#9FA0A0" d="M35.527,36.484h-3.57c-0.527,0-0.957-0.428-0.957-0.957V8.471c0-0.527,0.43-0.957,0.957-0.957h3.57
				c0.527,0,0.957,0.43,0.957,0.957v27.056C36.484,36.057,36.055,36.484,35.527,36.484z M32.641,34.846h2.205V9.155h-2.205V34.846z"
				/>
		</g>
	</g>
</g>
</svg>
