<?xml version="1.0" encoding="utf-8"?>
<!-- Generator: Adobe Illustrator 16.0.0, SVG Export Plug-In . SVG Version: 6.00 Build 0)  -->
<!DOCTYPE svg PUBLIC "-//W3C//DTD SVG 1.1//EN" "http://www.w3.org/Graphics/SVG/1.1/DTD/svg11.dtd">
<svg version="1.1" id="图层_1" xmlns="http://www.w3.org/2000/svg" xmlns:xlink="http://www.w3.org/1999/xlink" x="0px" y="0px"
	 width="44px" height="44px" viewBox="0 0 44 44" enable-background="new 0 0 44 44" xml:space="preserve">
<path fill="#9FA0A0" d="M32.933,7.515H11.067c-1.959,0-3.553,1.594-3.553,3.553v21.865c0,1.959,1.594,3.553,3.553,3.553h21.865
	c1.959,0,3.553-1.594,3.553-3.553V11.067C36.485,9.108,34.892,7.515,32.933,7.515z M11.067,9.153h21.865
	c1.055,0,1.912,0.859,1.912,1.914v10.18h-2.67l-2.711-5.994l-4.363,8.637l-2.391-3.512l-4.191,6.143l-3.287-13.191l-4.563,7.957
	H9.155V11.067C9.155,10.013,10.013,9.153,11.067,9.153z M32.933,34.845H11.067c-1.055,0-1.912-0.857-1.912-1.912V22.927h2.463
	l3.008-5.244l3.186,12.783l4.896-7.176l2.604,3.82l4.07-8.059l1.736,3.836h3.727v10.045C34.845,33.987,33.987,34.845,32.933,34.845z
	"/>
</svg>
