<?xml version="1.0" encoding="utf-8"?>
<!-- Generator: Adobe Illustrator 16.0.0, SVG Export Plug-In . SVG Version: 6.00 Build 0)  -->
<!DOCTYPE svg PUBLIC "-//W3C//DTD SVG 1.1//EN" "http://www.w3.org/Graphics/SVG/1.1/DTD/svg11.dtd">
<svg version="1.1" id="图层_1" xmlns="http://www.w3.org/2000/svg" xmlns:xlink="http://www.w3.org/1999/xlink" x="0px" y="0px"
	 width="44px" height="44px" viewBox="0 0 44 44" enable-background="new 0 0 44 44" xml:space="preserve">
<g>
	<g>
		<path fill="#9FA0A0" d="M22.001,36.485c-7.986,0-14.486-6.5-14.486-14.484c0-7.988,6.5-14.486,14.486-14.486
			c7.988,0,14.484,6.498,14.484,14.486C36.485,29.985,29.989,36.485,22.001,36.485z M22.001,9.327
			c-6.988,0-12.674,5.684-12.674,12.674c0,6.988,5.686,12.672,12.674,12.672s12.672-5.684,12.672-12.672
			C34.673,15.011,28.989,9.327,22.001,9.327z"/>
	</g>
	<path fill="#9FA0A0" d="M35.581,26.229c0,0.498-0.404,0.902-0.908,0.902H9.327c-0.5,0-0.906-0.404-0.906-0.902l0,0
		c0-0.502,0.406-0.906,0.906-0.906h25.346C35.177,25.323,35.581,25.728,35.581,26.229L35.581,26.229z"/>
	<path fill="#9FA0A0" d="M13.853,33.622c-0.498,0-0.904-0.406-0.904-0.906v-9.957c0-0.502,0.406-0.906,0.904-0.906l0,0
		c0.502,0,0.906,0.404,0.906,0.906v9.957C14.759,33.216,14.354,33.622,13.853,33.622L13.853,33.622z"/>
	<path fill="#9FA0A0" d="M19.284,35.433c-0.498,0-0.906-0.406-0.906-0.906V22.759c0-0.502,0.408-0.906,0.906-0.906l0,0
		c0.5,0,0.906,0.404,0.906,0.906v11.768C20.19,35.026,19.784,35.433,19.284,35.433L19.284,35.433z"/>
	<path fill="#9FA0A0" d="M24.716,35.433c-0.5,0-0.902-0.406-0.902-0.906V22.759c0-0.502,0.402-0.906,0.902-0.906l0,0
		c0.504,0,0.906,0.404,0.906,0.906v11.768C25.622,35.026,25.22,35.433,24.716,35.433L24.716,35.433z"/>
	<path fill="#9FA0A0" d="M30.149,33.622c-0.5,0-0.906-0.406-0.906-0.906v-9.957c0-0.502,0.406-0.906,0.906-0.906l0,0
		c0.5,0,0.904,0.404,0.904,0.906v9.957C31.054,33.216,30.649,33.622,30.149,33.622L30.149,33.622z"/>
</g>
</svg>
