<?xml version="1.0" encoding="utf-8"?>
<!-- Generator: Adobe Illustrator 16.0.0, SVG Export Plug-In . SVG Version: 6.00 Build 0)  -->
<!DOCTYPE svg PUBLIC "-//W3C//DTD SVG 1.1//EN" "http://www.w3.org/Graphics/SVG/1.1/DTD/svg11.dtd">
<svg version="1.1" id="图层_1" xmlns="http://www.w3.org/2000/svg" xmlns:xlink="http://www.w3.org/1999/xlink" x="0px" y="0px"
	 width="44px" height="44px" viewBox="0 0 44 44" enable-background="new 0 0 44 44" xml:space="preserve">
<g>
	<g>
		<path fill="#9FA0A0" d="M31.178,31.197c-3.711,0-8.81-2.404-12.058-4.468c-2.508-1.431-5.742-1.474-7.297-1.494
			c-0.313-0.005-0.557-0.008-0.756-0.02c-1.43-0.083-5.289-0.92-5.973-3.746l-0.018-0.096c-0.027-0.209-0.637-5.159,2.709-8.977
			c2.438-2.78,6.283-4.19,11.428-4.19c2.766,0,5.947,0.416,9.455,1.234C35.063,11,38.418,16.147,38.91,20.56
			c0.488,4.375-1.598,8.282-5.443,10.194l-0.021,0.011C32.828,31.052,32.064,31.197,31.178,31.197z M6.879,21.088
			c0.439,1.592,3.293,2.248,4.295,2.306c0.156,0.01,0.395,0.013,0.672,0.016c1.713,0.023,5.279,0.07,8.199,1.746l0.035,0.021
			c3.941,2.509,8.402,4.194,11.097,4.194c0.613,0,1.115-0.087,1.488-0.257c3.182-1.589,4.838-4.71,4.432-8.353
			c-0.424-3.781-3.324-8.199-8.854-9.545c-3.363-0.785-6.404-1.185-9.031-1.185c-4.596,0-7.979,1.2-10.055,3.568
			C6.51,16.623,6.831,20.612,6.879,21.088z"/>
	</g>
	<g>
		<path fill="#9FA0A0" d="M31.361,35.793c-3.496,0-8.477-2.136-12.294-4.563c-2.568-1.465-5.877-1.509-7.471-1.529
			c-0.316-0.004-0.566-0.008-0.768-0.02c-1.457-0.086-5.389-0.938-6.086-3.813l-0.018-0.095c-0.012-0.087-0.273-2.158,0.4-4.658
			l1.762,0.475c-0.521,1.937-0.389,3.599-0.357,3.898c0.451,1.637,3.377,2.312,4.406,2.372c0.16,0.01,0.402,0.013,0.686,0.017
			c1.748,0.022,5.389,0.07,8.371,1.781l0.035,0.021c5.089,3.238,10.742,5.005,12.88,4.023c4.24-2.115,5.051-6.281,4.393-9.477
			c-0.055-0.271-0.123-0.543-0.199-0.811l1.752-0.509c0.092,0.314,0.17,0.635,0.234,0.951c1,4.854-1.111,9.362-5.379,11.484
			l-0.021,0.011C33.035,35.656,32.246,35.793,31.361,35.793z"/>
	</g>
	<g>
		<path fill="#9FA0A0" d="M15.1,20.443c-0.209,0-0.42-0.014-0.629-0.04c-2.244-0.283-3.879-2.024-3.645-3.881
			c0.213-1.677,1.838-2.894,3.865-2.894c0.209,0,0.42,0.014,0.629,0.04c1.045,0.132,1.996,0.581,2.678,1.265
			c0.732,0.733,1.084,1.688,0.967,2.616C18.752,19.226,17.127,20.443,15.1,20.443z M14.692,15.454c-1.078,0-1.961,0.558-2.055,1.297
			c-0.107,0.844,0.838,1.688,2.063,1.843c0.133,0.017,0.268,0.025,0.4,0.025c1.078,0,1.961-0.558,2.055-1.298
			c0.063-0.502-0.254-0.904-0.447-1.1c-0.391-0.392-0.979-0.662-1.615-0.742C14.959,15.462,14.825,15.454,14.692,15.454z"/>
	</g>
</g>
</svg>
