<?xml version="1.0" standalone="no"?><!DOCTYPE svg PUBLIC "-//W3C//DTD SVG 1.1//EN" "http://www.w3.org/Graphics/SVG/1.1/DTD/svg11.dtd"><svg t="1577762153864" class="icon" viewBox="0 0 1024 1024" version="1.1" xmlns="http://www.w3.org/2000/svg" p-id="6308" xmlns:xlink="http://www.w3.org/1999/xlink" width="200" height="200"><defs><style type="text/css"></style></defs><path d="M836.52793564 697.77139302c-11.51384022 20.37064105-33.21300278 33.06538902-56.53590956 33.06538903H186.29115662c-23.47052176 0-45.02206934-12.69474797-56.53590957-33.06538903-11.51384022-20.37064105-11.2186139-45.46490945 0.88567899-65.54032416l296.85043473-492.43811446c11.80906777-19.48496084 32.91777524-31.44164238 55.65023058-31.44164238 22.73245533 0 43.84116281 11.95668033 55.65023057 31.44164238l296.85043473 492.43811446c12.10429409 20.07541472 12.39952043 45.16968311 0.88567899 65.54032416z m-41.1841222-41.18412341L498.49337871 164.14915516c-3.24749327-5.31408001-9.00441339-8.70918705-15.35178736-8.70918705-6.19976021 0-12.10429409 3.24749327-15.35178737 8.70918705l-296.70282096 492.43811445c-3.39510704 5.46169378-3.39510704 12.39952043-0.29522755 18.00882798 3.09988071 5.60930755 9.15202716 9.15202716 15.64701491 9.15202837h593.5532557c6.49498655 0 12.39952043-3.54272082 15.6470137-9.15202837 3.09988071-5.60930755 2.95226694-12.5471342-0.29522634-18.00882798z m-311.46415566-32.03209504c-18.59928186 0-33.65584289-15.05656103-33.65584168-33.65584289 0-18.59928186 15.05656103-33.65584289 33.65584168-33.65584169 17.86121421 0 33.21300278 15.35178737 33.21300279 33.65584169 0 17.86121421-15.35178737 33.65584289-33.21300279 33.65584289z m-0.44284011-97.57242042c-14.02326706 0-25.83233483-5.60930755-25.83233482-19.18973451 0-51.95989721-6.05214766-126.79986229-6.05214766-178.75975949 0-16.97553401 14.02326706-26.71801503 31.88448248-26.71801504 16.97553401 0 31.44164238 9.59486725 31.44164238 26.71801504 0 51.95989721-6.05214766 126.79986229-6.05214644 178.75975949-0.14761377 13.58042817-14.90894726 19.18973452-25.38949594 19.18973451z m0 0" fill="#cdcdcd" p-id="6309"></path></svg>